HIERARCHY
ROOT Hips
{
  OFFSET 3.13124 94.3669 -3.18751
  CHANNELS  6 Xposition Yposition Zposition Zrotation Xrotation Yrotation
  JOINT LeftUpLeg
  {
    OFFSET 8.64259 1.95398 -2.38835
    CHANNELS 3 Zrotation Xrotation Yrotation
    JOINT LeftLeg
    {
      OFFSET 43.7702 0 0
      CHANNELS 3 Zrotation Xrotation Yrotation
      JOINT LeftFoot
      {
        OFFSET 40.6238 0 0
        CHANNELS 3 Zrotation Xrotation Yrotation
        JOINT LeftToeBase
        {
          OFFSET 12.7242 0 0
          CHANNELS 3 Zrotation Xrotation Yrotation
          End Site
          {
            OFFSET 0 0 0
          }
        }
      }
    }
  }
  JOINT RightUpLeg
  {
    OFFSET -8.2249 1.95398 -2.59336
    CHANNELS 3 Zrotation Xrotation Yrotation
    JOINT RightLeg
    {
      OFFSET 43.5653 0 0
      CHANNELS 3 Zrotation Xrotation Yrotation
      JOINT RightFoot
      {
        OFFSET 40.6238 0 0
        CHANNELS 3 Zrotation Xrotation Yrotation
        JOINT RightToeBase
        {
          OFFSET 12.7242 0 0
          CHANNELS 3 Zrotation Xrotation Yrotation
          End Site
          {
            OFFSET 0 0 0
          }
        }
      }
    }
  }
  JOINT Spine
  {
    OFFSET 0.165834 0.87714 6.61349
    CHANNELS 3 Zrotation Xrotation Yrotation
    JOINT Spine1
    {
      OFFSET 7.38962 1.71661e-005 0
      CHANNELS 3 Zrotation Xrotation Yrotation
      JOINT Spine2
      {
        OFFSET 11.9445 1.14441e-005 0
        CHANNELS 3 Zrotation Xrotation Yrotation
        JOINT Spine3
        {
          OFFSET 14.7254 4.19617e-005 0
          CHANNELS 3 Zrotation Xrotation Yrotation
          JOINT Spine4
          {
            OFFSET 10.9679 0 0
            CHANNELS 3 Zrotation Xrotation Yrotation
            JOINT RightShoulder
            {
              OFFSET 2.46616 -1.6653 3.69651
              CHANNELS 3 Zrotation Xrotation Yrotation
              JOINT RightArm
              {
                OFFSET 13.0012 0 0
                CHANNELS 3 Zrotation Xrotation Yrotation
                JOINT RightForeArm
                {
                  OFFSET 28.7848 1.52588e-005 0
                  CHANNELS 3 Zrotation Xrotation Yrotation
                  JOINT RightHand
                  {
                    OFFSET 26.5688 1.52588e-005 0
                    CHANNELS 3 Zrotation Xrotation Yrotation
                    End Site
                    {
                      OFFSET 0 0 0
                    }
                  }
                }
              }
            }
            JOINT LeftShoulder
            {
              OFFSET 2.38034 -1.29275 -3.75231
              CHANNELS 3 Zrotation Xrotation Yrotation
              JOINT LeftArm
              {
                OFFSET 16.3182 6.10352e-005 0
                CHANNELS 3 Zrotation Xrotation Yrotation
                JOINT LeftForeArm
                {
                  OFFSET 27.0901 0 0
                  CHANNELS 3 Zrotation Xrotation Yrotation
                  JOINT LeftHand
                  {
                    OFFSET 24.5451 1.52588e-005 0
                    CHANNELS 3 Zrotation Xrotation Yrotation
                    End Site
                    {
                      OFFSET 0 0 0
                    }
                  }
                }
              }
            }
            JOINT Neck
            {
              OFFSET 5.0226 -0.0266342 0
              CHANNELS 3 Zrotation Xrotation Yrotation
              JOINT Head
              {
                OFFSET 6.69363 2.86102e-005 0
                CHANNELS 3 Zrotation Xrotation Yrotation
                End Site
                {
                  OFFSET 0 0 0
                }
              }
            }
          }
        }
      }
    }
  }
}
MOTION
Frames:	15
Frame Time:	0.0333333
-90.6951 72.1603 -154.562 -32.7584 -49.1141 -52.874 -29.2496 80.2077 -50.3328 -91.7926 9.87741 -9.55474 25.1728 6.15105 5.3032 28.7808 5.53551e-006 4.34073e-006 -164.979 85.7943 70.299 -66.0916 2.91267 -0.676577 84.0767 12.2665 3.88287 28.7808 1.43229e-005 2.78011e-005 -7.17821 16.1979 -85.1016 -5.88496 1.66083 0.219975 -17.5549 1.6689 0.146647 -40.0973 1.51791 0.709065 -20.0846 1.51791 0.709062 99.2053 8.22582 -98.6425 70.7322 26.057 -112.04 -0.770326 5.27227 -63.9823 -5.37983 -0.320032 -0.0162399 -85.4776 3.65448 66.4287 -61.4489 -12.2774 -113.767 -52.3451 -24.6872 -79.8666 -47.7589 13.5264 -36.2351 30.0999 -3.62189 -17.0436 -11.9702 1.18733 25.731 
-90.426 73.6888 -153.77 -33.6554 -48.174 -54.1656 -38.3119 81.9191 -41.5239 -89.347 10.6602 -10.7551 24.5529 9.40781 9.0874 28.7808 5.53551e-006 4.34073e-006 -170.058 83.851 75.3974 -62.82 2.37096 -0.630585 82.9292 12.2137 4.02286 28.7808 1.43229e-005 2.78011e-005 -6.91067 16.2563 -85.1815 -5.97861 1.76706 0.0822925 -17.6483 1.76897 0.00441356 -40.1923 1.66061 0.609723 -20.1796 1.66061 0.609701 99.0879 8.54178 -99.5301 70.2202 28.1707 -110.055 -0.776353 5.33715 -63.6547 -5.37983 -0.320032 -0.0162399 -85.5196 3.67837 66.2476 -62.3743 -12.2364 -113.679 -56.944 -27.8601 -82.016 -50.8127 13.1794 -33.3578 27.5768 -3.90965 -17.9513 -10.8973 1.06069 26.4194 
-90.2412 75.5329 -152.958 -34.2586 -47.5653 -55.206 -53.213 83.4356 -27.7232 -86.1909 12.139 -10.7053 23.2065 10.7049 10.7311 28.7808 5.53551e-006 4.34073e-006 -172.715 81.4993 78.0221 -58.9966 3.315 -0.496992 80.9741 12.2538 4.31772 28.7808 1.43229e-005 2.78011e-005 -6.66709 16.2837 -85.284 -6.01535 1.77203 -0.10391 -17.6851 1.76574 -0.18181 -40.2296 1.72131 0.43364 -20.2169 1.72131 0.433634 98.7697 8.15937 -100.913 68.396 31.2969 -107.523 -0.807674 5.228 -64.0967 -5.37983 -0.320032 -0.0162399 -85.3289 4.16602 66.4881 -62.4959 -12.078 -112.962 -55.8245 -32.0748 -81.1384 -51.2518 13.5264 -33.8205 24.1105 -3.67283 -18.7684 -8.96592 1.44683 26.7324 
-90.1447 77.5946 -152.143 -35.1175 -47.0156 -56.7265 -81.4932 84.413 -0.589876 -82.5139 13.7444 -10.5373 22.5592 11.4019 11.5814 28.7808 5.53551e-006 4.34073e-006 -172.963 78.7561 77.9267 -54.8805 2.7871 -0.439381 78.3103 12.3732 4.7536 28.7808 1.43229e-005 2.78011e-005 -6.30022 16.3253 -85.4338 -6.07026 1.7699 -0.320909 -17.7401 1.75407 -0.398517 -40.2848 1.7845 0.226017 -20.2722 1.78449 0.226018 98.5696 7.79661 -101.646 65.7938 34.3801 -104.41 -1.07173 5.07199 -64.9486 -5.37983 -0.320032 -0.0162399 -85.2137 4.53952 66.5568 -61.4174 -11.9997 -112.285 -45.8293 -34.7146 -74.2684 -42.8355 13.9966 -41.445 21.2447 -3.51132 -19.1469 -7.19424 1.64563 27.0818 
-90.0485 79.8937 -151.278 -35.7972 -45.7412 -57.7916 -111.817 84.1217 29.2225 -78.3142 14.5406 -10.9269 21.875 12.5509 13.0102 28.7808 5.53551e-006 4.34073e-006 -175.024 75.7805 80.0843 -49.2101 2.41249 -0.351473 75.0279 12.3531 5.23381 28.7808 1.43229e-005 2.78011e-005 -5.80412 16.3007 -85.6659 -5.97057 1.90365 -0.475257 -17.6403 1.88088 -0.558613 -40.1866 1.95845 0.119056 -20.174 1.95845 0.119033 98.4563 7.2139 -101.716 62.1786 36.3461 -100.598 -1.66975 4.89142 -65.7693 -5.37983 -0.320032 -0.0162399 -85.1071 5.10466 66.3967 -60.3668 -11.9863 -111.605 -33.0141 -34.7872 -65.1133 -31.2537 11.5575 -47.6882 19.188 -3.32826 -19.906 -6.05186 1.95185 27.9652 
-90.0881 82.1694 -150.452 -37.4014 -44.9738 -59.7819 -137.778 81.7346 55.0284 -73.8465 14.5795 -11.9934 20.7598 13.7179 14.5756 28.7808 5.53551e-006 4.34073e-006 -176.029 71.9165 80.9556 -43.4716 1.26546 -0.312635 71.4851 12.0871 5.6421 28.7808 1.43229e-005 2.78011e-005 -5.36326 16.3082 -85.8086 -5.95494 1.84632 -0.571449 -17.6248 1.81938 -0.652194 -40.1704 1.93267 0.0100633 -20.1578 1.93268 0.010063 98.3168 6.63057 -101.916 57.2544 37.1159 -95.9402 -2.62181 4.67672 -65.7352 -5.37983 -0.320032 -0.0162399 -84.9659 5.45297 66.5953 -59.8686 -11.4795 -110.308 -13.2435 -26.8039 -52.613 -11.4089 4.11729 -51.0727 18.1638 -2.91778 -20.0039 -5.70427 2.25692 28.9036 
-90.2103 84.3539 -149.511 -39.4732 -44.1928 -62.0174 -153.924 77.5226 72.2096 -70.8374 8.06873 -16.1902 22.5481 18.5602 20.1181 28.7808 5.53551e-006 4.34073e-006 -176.84 67.656 81.6604 -37.631 -0.636337 -0.311405 67.7139 11.2986 5.80715 28.7808 1.43229e-005 2.78011e-005 -4.71177 16.2761 -86.0652 -5.84936 1.59831 -0.565383 -17.5195 1.5719 -0.63521 -40.0625 1.69433 -0.0587568 -20.0498 1.69433 -0.0587628 97.8273 5.22097 -103.07 50.4081 36.9785 -90.5327 -3.73786 4.24142 -63.9253 -5.37983 -0.320032 -0.0162399 -84.8126 5.45579 67.2042 -61.1197 -9.26041 -108.014 21.1151 3.67741 -41.8706 25.2315 -8.16006 -35.6258 17.361 -2.43205 -20.2098 -5.84585 2.59116 29.5032 
-90.4788 86.4646 -148.702 -41.7915 -43.8763 -64.5361 -160.517 72.9121 78.4473 -66.5011 7.09867 -16.7008 23.3275 18.4277 19.6403 28.7808 5.53551e-006 4.34073e-006 -177.625 62.1477 82.0569 -30.234 -2.02256 -0.27757 64.0337 11.2739 6.34077 28.7808 1.43229e-005 2.78011e-005 -4.24014 16.2134 -86.2333 -5.70343 1.29373 -0.562858 -17.3739 1.26769 -0.619271 -39.9141 1.40307 -0.147952 -19.9014 1.40307 -0.147956 97.193 3.54776 -104.52 43.3966 35.5903 -84.8164 -4.33994 3.47295 -59.5744 -5.37983 -0.320032 -0.0162399 -84.8781 4.8984 67.5064 -60.1077 -9.74744 -104.734 33.078 16.6443 -40.8911 19.1989 -4.80905 -28.806 16.4944 -1.64482 -20.164 -6.43083 3.00623 30.2526 
-90.8345 88.3142 -147.936 -43.9854 -43.7602 -67.0683 -164.222 68.1628 81.3809 -61.956 7.17159 -16.7565 24.1487 18.5023 19.4232 28.7808 5.53551e-006 4.34073e-006 -178.366 56.4634 82.1375 -22.467 -3.21671 -0.241394 60.1267 11.0746 6.82288 28.7808 1.43229e-005 2.78011e-005 -3.736 16.0943 -86.4965 -5.443 0.918699 -0.556878 -17.1138 0.893297 -0.596773 -39.6512 1.0436 -0.25502 -19.6386 1.04358 -0.254995 96.3707 1.48895 -106.247 37.5053 33.1414 -79.3098 -3.77759 2.46653 -52.4534 -5.37983 -0.320032 -0.0162399 -84.9986 3.9737 67.9333 -59.5122 -9.24067 -100.588 34.9263 19.2025 -41.7663 14.3411 -2.90953 -23.4311 14.9792 -0.8141 -19.2683 -6.32223 3.34173 29.714 
-91.2574 89.9258 -147.197 -46.5906 -44.104 -70.076 -166.468 63.289 82.9967 -57.8309 6.71988 -17.0954 24.4964 17.302 17.8617 28.7808 5.53551e-006 4.34073e-006 -179.288 49.9279 81.9607 -13.8669 -3.86991 -0.229333 55.9723 11.2173 7.56932 28.7808 1.43229e-005 2.78011e-005 -3.36436 15.9745 -86.7183 -5.19374 0.504833 -0.578288 -16.8647 0.4789 -0.59995 -39.4001 0.655294 -0.39984 -19.3875 0.655293 -0.399836 95.4504 -0.697698 -108.017 32.2682 30.4097 -74.8026 -2.68076 1.36193 -46.2083 -5.37983 -0.320032 -0.0162399 -85.1246 2.49011 68.8094 -58.9379 -7.4578 -96.4701 33.9646 18.9928 -42.0227 10.4767 -1.94864 -20.7713 13.8207 0.294384 -17.5633 -6.46054 3.75803 29.0697 
-91.7358 91.3054 -146.789 -48.2418 -44.3444 -72.1206 -167.43 59.7468 83.6415 -53.712 8.74318 -15.9651 24.7605 13.809 13.6544 28.7808 5.53551e-006 4.34073e-006 179.803 44.9378 81.8952 -6.81496 -4.54202 -0.248437 52.6974 11.3882 8.32095 28.7808 1.43229e-005 2.78011e-005 -3.08654 15.7602 -86.9673 -4.75593 0.189943 -0.660539 -16.427 0.160692 -0.668249 -38.9612 0.379677 -0.572907 -18.9486 0.379677 -0.572922 94.5832 -2.89353 -109.372 30.2892 28.1724 -72.8356 -1.84373 0.837243 -45.3804 -5.37983 -0.320032 -0.0162399 -84.7828 1.73121 70.6749 -58.3721 -5.03258 -92.2158 33.2843 19.4703 -42.3533 7.60703 -1.34431 -18.6848 13.9202 1.3268 -16.3422 -8.8516 3.88783 28.2219 
-92.4493 91.9975 -146.172 -49.7703 -45.5021 -74.308 -167.948 56.9784 81.9057 -51.9467 12.8206 -10.8173 27.1479 6.8173 5.28548 28.7808 5.53551e-006 4.34073e-006 179.086 41.4706 80.855 -3.72651 -5.35859 -0.280157 51.688 11.4839 8.63112 28.7808 1.43229e-005 2.78011e-005 -3.21964 15.5491 -86.9329 -4.36302 -0.216553 -0.918371 -16.0343 -0.256748 -0.90797 -38.5668 0.0694531 -0.941003 -18.5542 0.0694518 -0.941005 94.1677 -4.49661 -109.557 30.0352 25.3579 -72.0989 -1.22576 0.481682 -45.4238 -5.37983 -0.320032 -0.0162399 -84.3578 0.55611 73.0622 -57.7727 -1.66673 -89.3467 33.6726 20.8475 -42.4918 4.76772 -1.01266 -19.0734 14.6529 2.6195 -13.9905 -11.4134 4.0863 26.8724 
-93.1708 92.3966 -145.72 -52.1403 -45.8883 -76.904 -167.721 53.4877 79.9301 -50.6689 23.9319 -3.05438 29.9994 1.06098 -1.14325 28.7808 5.53551e-006 4.34073e-006 178.853 39.4195 80.2851 -3.81117 -5.97447 -0.313833 51.8815 11.6544 8.72296 28.7808 1.43229e-005 2.78011e-005 -3.28361 15.4231 -86.7996 -4.1334 -0.391383 -1.06021 -15.8047 -0.437663 -1.04196 -38.3364 -0.0546906 -1.12882 -18.3238 -0.0546687 -1.12881 95.5191 -6.53933 -103.844 31.9192 18.0643 -76.3382 -0.617188 0.0599126 -44.362 -5.37983 -0.320032 -0.0162399 -83.3959 1.04191 76.1474 -58.2071 1.95204 -86.0096 32.0604 20.348 -42.9874 5.25901 -0.828832 -15.4118 17.9206 3.40343 -13.0878 -16.377 3.85133 26.428 
-93.8642 92.6549 -145.325 -53.3811 -46.5693 -78.0494 -168.591 49.4704 78.9188 -51.7931 41.2612 6.58076 34.44 3.9848 1.82794 28.7808 5.53551e-006 4.34073e-006 178.52 37.9032 79.9932 -3.80906 -6.04078 -0.319348 51.8747 11.4878 8.60954 28.7808 1.43229e-005 2.78011e-005 -2.99978 15.2477 -87.298 -3.76998 -0.75895 -1.41532 -15.4414 -0.820497 -1.38055 -37.9708 -0.298565 -1.57793 -17.9582 -0.298559 -1.57794 95.7896 -7.69994 -102.371 32.0097 14.7739 -76.5572 0.0117243 -0.172594 -43.323 -5.37983 -0.320032 -0.0162399 -82.6021 1.36036 78.8309 -59.2824 5.61621 -82.8439 33.2043 20.8344 -44.5646 2.71273 -0.646879 -16.8887 20.5947 4.82988 -11.0908 -20.1407 4.03643 26.295 
-94.3265 92.7825 -144.886 -53.7172 -47.1841 -78.4131 -169.603 47.8557 79.2118 -53.9818 42.9014 11.1181 34.5669 5.52901 3.33033 28.7808 5.53551e-006 4.34073e-006 178.328 37.0295 79.5724 -3.81161 -5.90918 -0.312076 52.4836 11.8029 8.72609 28.7808 1.43229e-005 2.78011e-005 -3.0183 14.9916 -87.5029 -3.27192 -1.03722 -1.82891 -14.9437 -1.11669 -1.7815 -37.4694 -0.439733 -2.05599 -17.4567 -0.439747 -2.05598 94.8326 -8.71425 -104.753 31.074 15.1554 -73.7166 0.487249 -0.209373 -43.9157 -5.37983 -0.320032 -0.0162399 -82.0539 2.0548 80.4841 -60.5438 7.77709 -78.8995 33.0165 19.8952 -45.99 0.275977 -0.462902 -20.2925 21.3725 6.34687 -9.21627 -21.8014 4.64908 25.9075 
